<svg width="86" height="94" viewBox="0 0 86 94" fill="none" xmlns="http://www.w3.org/2000/svg">
<path d="M83 25.5882L43 3L3 25.1176V68.4118L43 91L83 68.8824V25.5882Z" stroke="#76EEDA" stroke-width="5"/>
<path d="M27.98 65V63.845C29.96 63.845 31.115 63.4783 31.445 62.745V35.08C31.115 34.3467 29.96 33.98 27.98 33.98V32.825H37.275L53.555 55.1V35.08C53.225 34.3467 52.07 33.98 50.09 33.98V32.825H58.89V33.98C56.91 33.98 55.755 34.3467 55.425 35.08V65H53.005L33.315 37.775V62.745C33.645 63.4783 34.8 63.845 36.78 63.845V65H27.98Z" fill="#76EEDA"/>
</svg>
